<svg width="800" height="600" xmlns="http://www.w3.org/2000/svg">
 <g>
  <title>Layer 1</title>
  <g>
   <g>
    <title>Layer 1</title>
   </g>
  </g>
  <g>
   <g fill="#000000" transform="translate(0 500) scale(0.1 -0.1)">
    <path fill="#008080" d="m3132.5,2549.99725l0,-70l361,0l360,0l-3,-37l-3,-38l-357,-3l-358,-2l0,-70l0,-70l475,0c492,0 495,0 558,43c73,50 88,172 30,245c-59,74 -40,72 -580,72l-483,0l0,-70z"/>
    <path fill="#008080" d="m3132.5,2089.99725l0,-70l425,0l425,0l0,-40l0,-40l-425,0l-425,0l0,-70l0,-70l668,0l668,0l54,28c86,43 121,133 85,219c-21,50 -42,72 -90,94c-38,17 -81,19 -712,19l-673,0l0,-70z"/>
    <path fill="#008080" d="m3132.5,1669.99725l0,-70l680,0l680,0l0,-40l0,-40l-680,0l-680,0l0,-70c0,-49 4,-70 13,-70c6,0 367,0 800,0c752,0 790,0 831,19c67,29 91,71 91,158c0,65 -3,75 -31,110c-60,75 -29,72 -916,73l-788,0l0,-70z"/>
   </g>
  </g>
 </g>

</svg>